<?xml version="1.0" encoding="UTF-8" standalone="no"?>
<!DOCTYPE svg PUBLIC "-//W3C//DTD SVG 20010904//EN"
              "http://www.w3.org/TR/2001/REC-SVG-20010904/DTD/svg10.dtd">

<svg xmlns="http://www.w3.org/2000/svg"
     width="19.4489in" height="12.9891in"
     viewBox="0 0 1400 935">
  <path id="dpad"
        fill="none" stroke="black" stroke-width="1"
        d="M 555.64,347.52
           C 555.64,347.52 403.95,347.52 403.95,347.52
             362.00,347.33 359.33,544.67 397.25,543.69
             397.25,543.69 548.14,543.88 548.75,543.88
             549.31,543.88 581.42,543.51 582.77,566.09
             582.52,565.17 582.95,735.56 582.95,735.56
             582.00,776.00 792.00,770.67 792.46,735.56
             792.46,735.56 792.46,572.61 792.46,572.61
             792.28,549.17 808.52,550.15 808.52,550.15
             808.52,550.15 965.86,550.03 965.86,550.03
             1010.00,550.67 1016.00,341.33 970.66,340.99
             970.66,340.99 810.91,340.99 810.91,340.99
             810.91,340.99 786.49,340.19 786.86,319.33
             786.86,319.33 786.68,163.28 786.68,163.28
             786.00,116.67 577.33,120.00 576.62,167.89
             576.62,167.89 577.36,316.19 577.36,316.19
             576.62,345.98 561.12,347.27 555.64,347.52 Z" />
</svg>
